G04 #@! TF.FileFunction,Legend,Top*
%FSLAX46Y46*%
G04 Gerber Fmt 4.6, Leading zero omitted, Abs format (unit mm)*
G04 Created by KiCad (PCBNEW no-vcs-found-product) date Fri 08 Apr 2016 01:52:16 AM CDT*
%MOMM*%
G01*
G04 APERTURE LIST*
%ADD10C,0.100000*%
%ADD11C,0.300000*%
%ADD12C,0.248000*%
%ADD13C,0.150000*%
G04 APERTURE END LIST*
D10*
D11*
X97409286Y-135703571D02*
X97909286Y-137203571D01*
X98409286Y-135703571D01*
X99123572Y-137203571D02*
X98980714Y-137132143D01*
X98909286Y-137060714D01*
X98837857Y-136917857D01*
X98837857Y-136489286D01*
X98909286Y-136346429D01*
X98980714Y-136275000D01*
X99123572Y-136203571D01*
X99337857Y-136203571D01*
X99480714Y-136275000D01*
X99552143Y-136346429D01*
X99623572Y-136489286D01*
X99623572Y-136917857D01*
X99552143Y-137060714D01*
X99480714Y-137132143D01*
X99337857Y-137203571D01*
X99123572Y-137203571D01*
X100909286Y-136203571D02*
X100909286Y-137203571D01*
X100266429Y-136203571D02*
X100266429Y-136989286D01*
X100337857Y-137132143D01*
X100480715Y-137203571D01*
X100695000Y-137203571D01*
X100837857Y-137132143D01*
X100909286Y-137060714D01*
X101409286Y-136203571D02*
X101980715Y-136203571D01*
X101623572Y-135703571D02*
X101623572Y-136989286D01*
X101695000Y-137132143D01*
X101837858Y-137203571D01*
X101980715Y-137203571D01*
X109347143Y-135775000D02*
X109204286Y-135703571D01*
X108990000Y-135703571D01*
X108775715Y-135775000D01*
X108632857Y-135917857D01*
X108561429Y-136060714D01*
X108490000Y-136346429D01*
X108490000Y-136560714D01*
X108561429Y-136846429D01*
X108632857Y-136989286D01*
X108775715Y-137132143D01*
X108990000Y-137203571D01*
X109132857Y-137203571D01*
X109347143Y-137132143D01*
X109418572Y-137060714D01*
X109418572Y-136560714D01*
X109132857Y-136560714D01*
X110061429Y-137203571D02*
X110061429Y-135703571D01*
X110918572Y-137203571D01*
X110918572Y-135703571D01*
X111632858Y-137203571D02*
X111632858Y-135703571D01*
X111990001Y-135703571D01*
X112204286Y-135775000D01*
X112347144Y-135917857D01*
X112418572Y-136060714D01*
X112490001Y-136346429D01*
X112490001Y-136560714D01*
X112418572Y-136846429D01*
X112347144Y-136989286D01*
X112204286Y-137132143D01*
X111990001Y-137203571D01*
X111632858Y-137203571D01*
X66802143Y-139585000D02*
X66659286Y-139513571D01*
X66445000Y-139513571D01*
X66230715Y-139585000D01*
X66087857Y-139727857D01*
X66016429Y-139870714D01*
X65945000Y-140156429D01*
X65945000Y-140370714D01*
X66016429Y-140656429D01*
X66087857Y-140799286D01*
X66230715Y-140942143D01*
X66445000Y-141013571D01*
X66587857Y-141013571D01*
X66802143Y-140942143D01*
X66873572Y-140870714D01*
X66873572Y-140370714D01*
X66587857Y-140370714D01*
X67516429Y-141013571D02*
X67516429Y-139513571D01*
X68373572Y-141013571D01*
X68373572Y-139513571D01*
X69087858Y-141013571D02*
X69087858Y-139513571D01*
X69445001Y-139513571D01*
X69659286Y-139585000D01*
X69802144Y-139727857D01*
X69873572Y-139870714D01*
X69945001Y-140156429D01*
X69945001Y-140370714D01*
X69873572Y-140656429D01*
X69802144Y-140799286D01*
X69659286Y-140942143D01*
X69445001Y-141013571D01*
X69087858Y-141013571D01*
X66409286Y-147768571D02*
X66909286Y-149268571D01*
X67409286Y-147768571D01*
X67909286Y-149268571D02*
X67909286Y-148268571D01*
X67909286Y-147768571D02*
X67837857Y-147840000D01*
X67909286Y-147911429D01*
X67980714Y-147840000D01*
X67909286Y-147768571D01*
X67909286Y-147911429D01*
X68623572Y-148268571D02*
X68623572Y-149268571D01*
X68623572Y-148411429D02*
X68695000Y-148340000D01*
X68837858Y-148268571D01*
X69052143Y-148268571D01*
X69195000Y-148340000D01*
X69266429Y-148482857D01*
X69266429Y-149268571D01*
D12*
X94426047Y-155031762D02*
X93953666Y-155031762D01*
X93906428Y-155504143D01*
X93953666Y-155456905D01*
X94048143Y-155409667D01*
X94284333Y-155409667D01*
X94378809Y-155456905D01*
X94426047Y-155504143D01*
X94473286Y-155598619D01*
X94473286Y-155834810D01*
X94426047Y-155929286D01*
X94378809Y-155976524D01*
X94284333Y-156023762D01*
X94048143Y-156023762D01*
X93953666Y-155976524D01*
X93906428Y-155929286D01*
X94756714Y-155031762D02*
X95087381Y-156023762D01*
X95418048Y-155031762D01*
X70290619Y-155031762D02*
X70904715Y-155031762D01*
X70574048Y-155409667D01*
X70715762Y-155409667D01*
X70810238Y-155456905D01*
X70857476Y-155504143D01*
X70904715Y-155598619D01*
X70904715Y-155834810D01*
X70857476Y-155929286D01*
X70810238Y-155976524D01*
X70715762Y-156023762D01*
X70432334Y-156023762D01*
X70337857Y-155976524D01*
X70290619Y-155929286D01*
X71329857Y-155929286D02*
X71377096Y-155976524D01*
X71329857Y-156023762D01*
X71282619Y-155976524D01*
X71329857Y-155929286D01*
X71329857Y-156023762D01*
X71707762Y-155031762D02*
X72321858Y-155031762D01*
X71991191Y-155409667D01*
X72132905Y-155409667D01*
X72227381Y-155456905D01*
X72274619Y-155504143D01*
X72321858Y-155598619D01*
X72321858Y-155834810D01*
X72274619Y-155929286D01*
X72227381Y-155976524D01*
X72132905Y-156023762D01*
X71849477Y-156023762D01*
X71755000Y-155976524D01*
X71707762Y-155929286D01*
X72605286Y-155031762D02*
X72935953Y-156023762D01*
X73266620Y-155031762D01*
D13*
X81495000Y-147185000D02*
X81495000Y-146185000D01*
X79795000Y-146185000D02*
X79795000Y-147185000D01*
X84035000Y-147185000D02*
X84035000Y-146185000D01*
X82335000Y-146185000D02*
X82335000Y-147185000D01*
X91575000Y-151980000D02*
X92575000Y-151980000D01*
X92575000Y-150280000D02*
X91575000Y-150280000D01*
X91575000Y-149440000D02*
X92575000Y-149440000D01*
X92575000Y-147740000D02*
X91575000Y-147740000D01*
X106895000Y-152900000D02*
X106895000Y-151900000D01*
X105195000Y-151900000D02*
X105195000Y-152900000D01*
X109435000Y-152900000D02*
X109435000Y-151900000D01*
X107735000Y-151900000D02*
X107735000Y-152900000D01*
X111975000Y-152900000D02*
X111975000Y-151900000D01*
X110275000Y-151900000D02*
X110275000Y-152900000D01*
X75870000Y-136005000D02*
X78570000Y-136005000D01*
X75870000Y-134505000D02*
X78570000Y-134505000D01*
X77370000Y-135405000D02*
X77370000Y-135155000D01*
X77370000Y-135155000D02*
X77220000Y-135305000D01*
X77120000Y-134905000D02*
X77120000Y-135605000D01*
X77470000Y-135255000D02*
X77820000Y-135255000D01*
X77120000Y-135255000D02*
X77470000Y-134905000D01*
X77470000Y-134905000D02*
X77470000Y-135605000D01*
X77470000Y-135605000D02*
X77120000Y-135255000D01*
X111875000Y-144475000D02*
X111875000Y-141775000D01*
X110375000Y-144475000D02*
X110375000Y-141775000D01*
X111275000Y-142975000D02*
X111025000Y-142975000D01*
X111025000Y-142975000D02*
X111175000Y-143125000D01*
X110775000Y-143225000D02*
X111475000Y-143225000D01*
X111125000Y-142875000D02*
X111125000Y-142525000D01*
X111125000Y-143225000D02*
X110775000Y-142875000D01*
X110775000Y-142875000D02*
X111475000Y-142875000D01*
X111475000Y-142875000D02*
X111125000Y-143225000D01*
X82550000Y-156845000D02*
X87630000Y-156845000D01*
X87630000Y-156845000D02*
X87630000Y-154305000D01*
X87630000Y-154305000D02*
X82550000Y-154305000D01*
X79730000Y-154025000D02*
X81280000Y-154025000D01*
X82550000Y-154305000D02*
X82550000Y-156845000D01*
X81280000Y-157125000D02*
X79730000Y-157125000D01*
X79730000Y-157125000D02*
X79730000Y-154025000D01*
X89875000Y-138770000D02*
X94275000Y-138770000D01*
X94275000Y-138770000D02*
X94275000Y-143170000D01*
X94275000Y-143170000D02*
X89875000Y-143170000D01*
X89875000Y-143170000D02*
X89875000Y-138770000D01*
X76800000Y-156450000D02*
X75600000Y-156450000D01*
X75600000Y-154700000D02*
X76800000Y-154700000D01*
X90205000Y-154700000D02*
X91405000Y-154700000D01*
X91405000Y-156450000D02*
X90205000Y-156450000D01*
X81950000Y-134380000D02*
X83150000Y-134380000D01*
X83150000Y-136130000D02*
X81950000Y-136130000D01*
X100090000Y-153000000D02*
X100090000Y-151800000D01*
X101840000Y-151800000D02*
X101840000Y-153000000D01*
X110250000Y-147920000D02*
X110250000Y-146720000D01*
X112000000Y-146720000D02*
X112000000Y-147920000D01*
X99300000Y-151800000D02*
X99300000Y-153000000D01*
X97550000Y-153000000D02*
X97550000Y-151800000D01*
X84490000Y-139460000D02*
X85690000Y-139460000D01*
X85690000Y-141210000D02*
X84490000Y-141210000D01*
X102630000Y-150460000D02*
X102630000Y-149260000D01*
X104380000Y-149260000D02*
X104380000Y-150460000D01*
X74685000Y-142935000D02*
X78985000Y-142935000D01*
X76835000Y-152975000D02*
X78985000Y-152975000D01*
X74685000Y-142935000D02*
X74685000Y-152975000D01*
X78985000Y-142935000D02*
X78985000Y-152975000D01*
X76195000Y-147955000D02*
X77475000Y-147955000D01*
X76195000Y-145925000D02*
X76195000Y-149985000D01*
X76195000Y-149985000D02*
X77475000Y-149985000D01*
X77475000Y-149985000D02*
X77475000Y-145925000D01*
X77475000Y-145925000D02*
X76195000Y-145925000D01*
X90850000Y-147065000D02*
X93300000Y-147065000D01*
X90125000Y-143765000D02*
X93300000Y-143765000D01*
X70850000Y-150105000D02*
X68850000Y-150105000D01*
X68850000Y-152155000D02*
X70850000Y-152155000D01*
X78470000Y-138860000D02*
X76470000Y-138860000D01*
X76470000Y-141810000D02*
X78470000Y-141810000D01*
X101330000Y-141400000D02*
X99330000Y-141400000D01*
X99330000Y-144350000D02*
X101330000Y-144350000D01*
X66675000Y-144145000D02*
X66675000Y-141605000D01*
X66395000Y-146965000D02*
X66395000Y-145415000D01*
X66675000Y-144145000D02*
X69215000Y-144145000D01*
X69495000Y-145415000D02*
X69495000Y-146965000D01*
X69495000Y-146965000D02*
X66395000Y-146965000D01*
X69215000Y-144145000D02*
X69215000Y-141605000D01*
X69215000Y-141605000D02*
X66675000Y-141605000D01*
X105410000Y-135255000D02*
X107950000Y-135255000D01*
X102590000Y-134975000D02*
X104140000Y-134975000D01*
X105410000Y-135255000D02*
X105410000Y-137795000D01*
X104140000Y-138075000D02*
X102590000Y-138075000D01*
X102590000Y-138075000D02*
X102590000Y-134975000D01*
X105410000Y-137795000D02*
X107950000Y-137795000D01*
X107950000Y-137795000D02*
X107950000Y-135255000D01*
X80478334Y-150217143D02*
X80430715Y-150264762D01*
X80287858Y-150312381D01*
X80192620Y-150312381D01*
X80049762Y-150264762D01*
X79954524Y-150169524D01*
X79906905Y-150074286D01*
X79859286Y-149883810D01*
X79859286Y-149740952D01*
X79906905Y-149550476D01*
X79954524Y-149455238D01*
X80049762Y-149360000D01*
X80192620Y-149312381D01*
X80287858Y-149312381D01*
X80430715Y-149360000D01*
X80478334Y-149407619D01*
X81430715Y-150312381D02*
X80859286Y-150312381D01*
X81145000Y-150312381D02*
X81145000Y-149312381D01*
X81049762Y-149455238D01*
X80954524Y-149550476D01*
X80859286Y-149598095D01*
X83018334Y-150217143D02*
X82970715Y-150264762D01*
X82827858Y-150312381D01*
X82732620Y-150312381D01*
X82589762Y-150264762D01*
X82494524Y-150169524D01*
X82446905Y-150074286D01*
X82399286Y-149883810D01*
X82399286Y-149740952D01*
X82446905Y-149550476D01*
X82494524Y-149455238D01*
X82589762Y-149360000D01*
X82732620Y-149312381D01*
X82827858Y-149312381D01*
X82970715Y-149360000D01*
X83018334Y-149407619D01*
X83399286Y-149407619D02*
X83446905Y-149360000D01*
X83542143Y-149312381D01*
X83780239Y-149312381D01*
X83875477Y-149360000D01*
X83923096Y-149407619D01*
X83970715Y-149502857D01*
X83970715Y-149598095D01*
X83923096Y-149740952D01*
X83351667Y-150312381D01*
X83970715Y-150312381D01*
X88098334Y-151487143D02*
X88050715Y-151534762D01*
X87907858Y-151582381D01*
X87812620Y-151582381D01*
X87669762Y-151534762D01*
X87574524Y-151439524D01*
X87526905Y-151344286D01*
X87479286Y-151153810D01*
X87479286Y-151010952D01*
X87526905Y-150820476D01*
X87574524Y-150725238D01*
X87669762Y-150630000D01*
X87812620Y-150582381D01*
X87907858Y-150582381D01*
X88050715Y-150630000D01*
X88098334Y-150677619D01*
X88431667Y-150582381D02*
X89050715Y-150582381D01*
X88717381Y-150963333D01*
X88860239Y-150963333D01*
X88955477Y-151010952D01*
X89003096Y-151058571D01*
X89050715Y-151153810D01*
X89050715Y-151391905D01*
X89003096Y-151487143D01*
X88955477Y-151534762D01*
X88860239Y-151582381D01*
X88574524Y-151582381D01*
X88479286Y-151534762D01*
X88431667Y-151487143D01*
X88098334Y-148947143D02*
X88050715Y-148994762D01*
X87907858Y-149042381D01*
X87812620Y-149042381D01*
X87669762Y-148994762D01*
X87574524Y-148899524D01*
X87526905Y-148804286D01*
X87479286Y-148613810D01*
X87479286Y-148470952D01*
X87526905Y-148280476D01*
X87574524Y-148185238D01*
X87669762Y-148090000D01*
X87812620Y-148042381D01*
X87907858Y-148042381D01*
X88050715Y-148090000D01*
X88098334Y-148137619D01*
X88955477Y-148375714D02*
X88955477Y-149042381D01*
X88717381Y-147994762D02*
X88479286Y-148709048D01*
X89098334Y-148709048D01*
X105878334Y-155932143D02*
X105830715Y-155979762D01*
X105687858Y-156027381D01*
X105592620Y-156027381D01*
X105449762Y-155979762D01*
X105354524Y-155884524D01*
X105306905Y-155789286D01*
X105259286Y-155598810D01*
X105259286Y-155455952D01*
X105306905Y-155265476D01*
X105354524Y-155170238D01*
X105449762Y-155075000D01*
X105592620Y-155027381D01*
X105687858Y-155027381D01*
X105830715Y-155075000D01*
X105878334Y-155122619D01*
X106783096Y-155027381D02*
X106306905Y-155027381D01*
X106259286Y-155503571D01*
X106306905Y-155455952D01*
X106402143Y-155408333D01*
X106640239Y-155408333D01*
X106735477Y-155455952D01*
X106783096Y-155503571D01*
X106830715Y-155598810D01*
X106830715Y-155836905D01*
X106783096Y-155932143D01*
X106735477Y-155979762D01*
X106640239Y-156027381D01*
X106402143Y-156027381D01*
X106306905Y-155979762D01*
X106259286Y-155932143D01*
X108418334Y-155932143D02*
X108370715Y-155979762D01*
X108227858Y-156027381D01*
X108132620Y-156027381D01*
X107989762Y-155979762D01*
X107894524Y-155884524D01*
X107846905Y-155789286D01*
X107799286Y-155598810D01*
X107799286Y-155455952D01*
X107846905Y-155265476D01*
X107894524Y-155170238D01*
X107989762Y-155075000D01*
X108132620Y-155027381D01*
X108227858Y-155027381D01*
X108370715Y-155075000D01*
X108418334Y-155122619D01*
X109275477Y-155027381D02*
X109085000Y-155027381D01*
X108989762Y-155075000D01*
X108942143Y-155122619D01*
X108846905Y-155265476D01*
X108799286Y-155455952D01*
X108799286Y-155836905D01*
X108846905Y-155932143D01*
X108894524Y-155979762D01*
X108989762Y-156027381D01*
X109180239Y-156027381D01*
X109275477Y-155979762D01*
X109323096Y-155932143D01*
X109370715Y-155836905D01*
X109370715Y-155598810D01*
X109323096Y-155503571D01*
X109275477Y-155455952D01*
X109180239Y-155408333D01*
X108989762Y-155408333D01*
X108894524Y-155455952D01*
X108846905Y-155503571D01*
X108799286Y-155598810D01*
X110958334Y-155932143D02*
X110910715Y-155979762D01*
X110767858Y-156027381D01*
X110672620Y-156027381D01*
X110529762Y-155979762D01*
X110434524Y-155884524D01*
X110386905Y-155789286D01*
X110339286Y-155598810D01*
X110339286Y-155455952D01*
X110386905Y-155265476D01*
X110434524Y-155170238D01*
X110529762Y-155075000D01*
X110672620Y-155027381D01*
X110767858Y-155027381D01*
X110910715Y-155075000D01*
X110958334Y-155122619D01*
X111291667Y-155027381D02*
X111958334Y-155027381D01*
X111529762Y-156027381D01*
X76731905Y-133802381D02*
X76731905Y-132802381D01*
X76970000Y-132802381D01*
X77112858Y-132850000D01*
X77208096Y-132945238D01*
X77255715Y-133040476D01*
X77303334Y-133230952D01*
X77303334Y-133373810D01*
X77255715Y-133564286D01*
X77208096Y-133659524D01*
X77112858Y-133754762D01*
X76970000Y-133802381D01*
X76731905Y-133802381D01*
X77684286Y-132897619D02*
X77731905Y-132850000D01*
X77827143Y-132802381D01*
X78065239Y-132802381D01*
X78160477Y-132850000D01*
X78208096Y-132897619D01*
X78255715Y-132992857D01*
X78255715Y-133088095D01*
X78208096Y-133230952D01*
X77636667Y-133802381D01*
X78255715Y-133802381D01*
X109827381Y-143613095D02*
X108827381Y-143613095D01*
X108827381Y-143375000D01*
X108875000Y-143232142D01*
X108970238Y-143136904D01*
X109065476Y-143089285D01*
X109255952Y-143041666D01*
X109398810Y-143041666D01*
X109589286Y-143089285D01*
X109684524Y-143136904D01*
X109779762Y-143232142D01*
X109827381Y-143375000D01*
X109827381Y-143613095D01*
X108827381Y-142708333D02*
X108827381Y-142089285D01*
X109208333Y-142422619D01*
X109208333Y-142279761D01*
X109255952Y-142184523D01*
X109303571Y-142136904D01*
X109398810Y-142089285D01*
X109636905Y-142089285D01*
X109732143Y-142136904D01*
X109779762Y-142184523D01*
X109827381Y-142279761D01*
X109827381Y-142565476D01*
X109779762Y-142660714D01*
X109732143Y-142708333D01*
X83081905Y-153487381D02*
X83081905Y-152487381D01*
X83653334Y-153487381D02*
X83224762Y-152915952D01*
X83653334Y-152487381D02*
X83081905Y-153058810D01*
X84605715Y-153487381D02*
X84034286Y-153487381D01*
X84320000Y-153487381D02*
X84320000Y-152487381D01*
X84224762Y-152630238D01*
X84129524Y-152725476D01*
X84034286Y-152773095D01*
X95083334Y-143327381D02*
X94607143Y-143327381D01*
X94607143Y-142327381D01*
X95940477Y-143327381D02*
X95369048Y-143327381D01*
X95654762Y-143327381D02*
X95654762Y-142327381D01*
X95559524Y-142470238D01*
X95464286Y-142565476D01*
X95369048Y-142613095D01*
X69048334Y-156027381D02*
X68715000Y-155551190D01*
X68476905Y-156027381D02*
X68476905Y-155027381D01*
X68857858Y-155027381D01*
X68953096Y-155075000D01*
X69000715Y-155122619D01*
X69048334Y-155217857D01*
X69048334Y-155360714D01*
X69000715Y-155455952D01*
X68953096Y-155503571D01*
X68857858Y-155551190D01*
X68476905Y-155551190D01*
X70000715Y-156027381D02*
X69429286Y-156027381D01*
X69715000Y-156027381D02*
X69715000Y-155027381D01*
X69619762Y-155170238D01*
X69524524Y-155265476D01*
X69429286Y-155313095D01*
X90638334Y-154122381D02*
X90305000Y-153646190D01*
X90066905Y-154122381D02*
X90066905Y-153122381D01*
X90447858Y-153122381D01*
X90543096Y-153170000D01*
X90590715Y-153217619D01*
X90638334Y-153312857D01*
X90638334Y-153455714D01*
X90590715Y-153550952D01*
X90543096Y-153598571D01*
X90447858Y-153646190D01*
X90066905Y-153646190D01*
X91019286Y-153217619D02*
X91066905Y-153170000D01*
X91162143Y-153122381D01*
X91400239Y-153122381D01*
X91495477Y-153170000D01*
X91543096Y-153217619D01*
X91590715Y-153312857D01*
X91590715Y-153408095D01*
X91543096Y-153550952D01*
X90971667Y-154122381D01*
X91590715Y-154122381D01*
X81113334Y-133802381D02*
X80780000Y-133326190D01*
X80541905Y-133802381D02*
X80541905Y-132802381D01*
X80922858Y-132802381D01*
X81018096Y-132850000D01*
X81065715Y-132897619D01*
X81113334Y-132992857D01*
X81113334Y-133135714D01*
X81065715Y-133230952D01*
X81018096Y-133278571D01*
X80922858Y-133326190D01*
X80541905Y-133326190D01*
X81446667Y-132802381D02*
X82065715Y-132802381D01*
X81732381Y-133183333D01*
X81875239Y-133183333D01*
X81970477Y-133230952D01*
X82018096Y-133278571D01*
X82065715Y-133373810D01*
X82065715Y-133611905D01*
X82018096Y-133707143D01*
X81970477Y-133754762D01*
X81875239Y-133802381D01*
X81589524Y-133802381D01*
X81494286Y-133754762D01*
X81446667Y-133707143D01*
X100798334Y-156027381D02*
X100465000Y-155551190D01*
X100226905Y-156027381D02*
X100226905Y-155027381D01*
X100607858Y-155027381D01*
X100703096Y-155075000D01*
X100750715Y-155122619D01*
X100798334Y-155217857D01*
X100798334Y-155360714D01*
X100750715Y-155455952D01*
X100703096Y-155503571D01*
X100607858Y-155551190D01*
X100226905Y-155551190D01*
X101655477Y-155360714D02*
X101655477Y-156027381D01*
X101417381Y-154979762D02*
X101179286Y-155694048D01*
X101798334Y-155694048D01*
X109672381Y-147486666D02*
X109196190Y-147820000D01*
X109672381Y-148058095D02*
X108672381Y-148058095D01*
X108672381Y-147677142D01*
X108720000Y-147581904D01*
X108767619Y-147534285D01*
X108862857Y-147486666D01*
X109005714Y-147486666D01*
X109100952Y-147534285D01*
X109148571Y-147581904D01*
X109196190Y-147677142D01*
X109196190Y-148058095D01*
X108672381Y-146581904D02*
X108672381Y-147058095D01*
X109148571Y-147105714D01*
X109100952Y-147058095D01*
X109053333Y-146962857D01*
X109053333Y-146724761D01*
X109100952Y-146629523D01*
X109148571Y-146581904D01*
X109243810Y-146534285D01*
X109481905Y-146534285D01*
X109577143Y-146581904D01*
X109624762Y-146629523D01*
X109672381Y-146724761D01*
X109672381Y-146962857D01*
X109624762Y-147058095D01*
X109577143Y-147105714D01*
X98258334Y-156027381D02*
X97925000Y-155551190D01*
X97686905Y-156027381D02*
X97686905Y-155027381D01*
X98067858Y-155027381D01*
X98163096Y-155075000D01*
X98210715Y-155122619D01*
X98258334Y-155217857D01*
X98258334Y-155360714D01*
X98210715Y-155455952D01*
X98163096Y-155503571D01*
X98067858Y-155551190D01*
X97686905Y-155551190D01*
X99115477Y-155027381D02*
X98925000Y-155027381D01*
X98829762Y-155075000D01*
X98782143Y-155122619D01*
X98686905Y-155265476D01*
X98639286Y-155455952D01*
X98639286Y-155836905D01*
X98686905Y-155932143D01*
X98734524Y-155979762D01*
X98829762Y-156027381D01*
X99020239Y-156027381D01*
X99115477Y-155979762D01*
X99163096Y-155932143D01*
X99210715Y-155836905D01*
X99210715Y-155598810D01*
X99163096Y-155503571D01*
X99115477Y-155455952D01*
X99020239Y-155408333D01*
X98829762Y-155408333D01*
X98734524Y-155455952D01*
X98686905Y-155503571D01*
X98639286Y-155598810D01*
X84923334Y-142887381D02*
X84590000Y-142411190D01*
X84351905Y-142887381D02*
X84351905Y-141887381D01*
X84732858Y-141887381D01*
X84828096Y-141935000D01*
X84875715Y-141982619D01*
X84923334Y-142077857D01*
X84923334Y-142220714D01*
X84875715Y-142315952D01*
X84828096Y-142363571D01*
X84732858Y-142411190D01*
X84351905Y-142411190D01*
X85256667Y-141887381D02*
X85923334Y-141887381D01*
X85494762Y-142887381D01*
X103338334Y-153487381D02*
X103005000Y-153011190D01*
X102766905Y-153487381D02*
X102766905Y-152487381D01*
X103147858Y-152487381D01*
X103243096Y-152535000D01*
X103290715Y-152582619D01*
X103338334Y-152677857D01*
X103338334Y-152820714D01*
X103290715Y-152915952D01*
X103243096Y-152963571D01*
X103147858Y-153011190D01*
X102766905Y-153011190D01*
X103909762Y-152915952D02*
X103814524Y-152868333D01*
X103766905Y-152820714D01*
X103719286Y-152725476D01*
X103719286Y-152677857D01*
X103766905Y-152582619D01*
X103814524Y-152535000D01*
X103909762Y-152487381D01*
X104100239Y-152487381D01*
X104195477Y-152535000D01*
X104243096Y-152582619D01*
X104290715Y-152677857D01*
X104290715Y-152725476D01*
X104243096Y-152820714D01*
X104195477Y-152868333D01*
X104100239Y-152915952D01*
X103909762Y-152915952D01*
X103814524Y-152963571D01*
X103766905Y-153011190D01*
X103719286Y-153106429D01*
X103719286Y-153296905D01*
X103766905Y-153392143D01*
X103814524Y-153439762D01*
X103909762Y-153487381D01*
X104100239Y-153487381D01*
X104195477Y-153439762D01*
X104243096Y-153392143D01*
X104290715Y-153296905D01*
X104290715Y-153106429D01*
X104243096Y-153011190D01*
X104195477Y-152963571D01*
X104100239Y-152915952D01*
X80414762Y-153098333D02*
X80462381Y-152955476D01*
X80462381Y-152717380D01*
X80414762Y-152622142D01*
X80367143Y-152574523D01*
X80271905Y-152526904D01*
X80176667Y-152526904D01*
X80081429Y-152574523D01*
X80033810Y-152622142D01*
X79986190Y-152717380D01*
X79938571Y-152907857D01*
X79890952Y-153003095D01*
X79843333Y-153050714D01*
X79748095Y-153098333D01*
X79652857Y-153098333D01*
X79557619Y-153050714D01*
X79510000Y-153003095D01*
X79462381Y-152907857D01*
X79462381Y-152669761D01*
X79510000Y-152526904D01*
X79462381Y-152193571D02*
X80462381Y-151955476D01*
X79748095Y-151764999D01*
X80462381Y-151574523D01*
X79462381Y-151336428D01*
X80462381Y-150431666D02*
X80462381Y-151003095D01*
X80462381Y-150717381D02*
X79462381Y-150717381D01*
X79605238Y-150812619D01*
X79700476Y-150907857D01*
X79748095Y-151003095D01*
X94488095Y-146137381D02*
X94488095Y-146946905D01*
X94535714Y-147042143D01*
X94583333Y-147089762D01*
X94678571Y-147137381D01*
X94869048Y-147137381D01*
X94964286Y-147089762D01*
X95011905Y-147042143D01*
X95059524Y-146946905D01*
X95059524Y-146137381D01*
X96059524Y-147137381D02*
X95488095Y-147137381D01*
X95773809Y-147137381D02*
X95773809Y-146137381D01*
X95678571Y-146280238D01*
X95583333Y-146375476D01*
X95488095Y-146423095D01*
X69111905Y-153487381D02*
X69111905Y-152487381D01*
X69350000Y-152487381D01*
X69492858Y-152535000D01*
X69588096Y-152630238D01*
X69635715Y-152725476D01*
X69683334Y-152915952D01*
X69683334Y-153058810D01*
X69635715Y-153249286D01*
X69588096Y-153344524D01*
X69492858Y-153439762D01*
X69350000Y-153487381D01*
X69111905Y-153487381D01*
X70635715Y-153487381D02*
X70064286Y-153487381D01*
X70350000Y-153487381D02*
X70350000Y-152487381D01*
X70254762Y-152630238D01*
X70159524Y-152725476D01*
X70064286Y-152773095D01*
X76636667Y-137563571D02*
X76303333Y-137563571D01*
X76303333Y-138087381D02*
X76303333Y-137087381D01*
X76779524Y-137087381D01*
X77493810Y-137563571D02*
X77636667Y-137611190D01*
X77684286Y-137658810D01*
X77731905Y-137754048D01*
X77731905Y-137896905D01*
X77684286Y-137992143D01*
X77636667Y-138039762D01*
X77541429Y-138087381D01*
X77160476Y-138087381D01*
X77160476Y-137087381D01*
X77493810Y-137087381D01*
X77589048Y-137135000D01*
X77636667Y-137182619D01*
X77684286Y-137277857D01*
X77684286Y-137373095D01*
X77636667Y-137468333D01*
X77589048Y-137515952D01*
X77493810Y-137563571D01*
X77160476Y-137563571D01*
X78684286Y-138087381D02*
X78112857Y-138087381D01*
X78398571Y-138087381D02*
X78398571Y-137087381D01*
X78303333Y-137230238D01*
X78208095Y-137325476D01*
X78112857Y-137373095D01*
X99496667Y-140103571D02*
X99163333Y-140103571D01*
X99163333Y-140627381D02*
X99163333Y-139627381D01*
X99639524Y-139627381D01*
X100353810Y-140103571D02*
X100496667Y-140151190D01*
X100544286Y-140198810D01*
X100591905Y-140294048D01*
X100591905Y-140436905D01*
X100544286Y-140532143D01*
X100496667Y-140579762D01*
X100401429Y-140627381D01*
X100020476Y-140627381D01*
X100020476Y-139627381D01*
X100353810Y-139627381D01*
X100449048Y-139675000D01*
X100496667Y-139722619D01*
X100544286Y-139817857D01*
X100544286Y-139913095D01*
X100496667Y-140008333D01*
X100449048Y-140055952D01*
X100353810Y-140103571D01*
X100020476Y-140103571D01*
X100972857Y-139722619D02*
X101020476Y-139675000D01*
X101115714Y-139627381D01*
X101353810Y-139627381D01*
X101449048Y-139675000D01*
X101496667Y-139722619D01*
X101544286Y-139817857D01*
X101544286Y-139913095D01*
X101496667Y-140055952D01*
X100925238Y-140627381D01*
X101544286Y-140627381D01*
X69746905Y-144597381D02*
X69746905Y-143597381D01*
X70127858Y-143597381D01*
X70223096Y-143645000D01*
X70270715Y-143692619D01*
X70318334Y-143787857D01*
X70318334Y-143930714D01*
X70270715Y-144025952D01*
X70223096Y-144073571D01*
X70127858Y-144121190D01*
X69746905Y-144121190D01*
X71270715Y-144597381D02*
X70699286Y-144597381D01*
X70985000Y-144597381D02*
X70985000Y-143597381D01*
X70889762Y-143740238D01*
X70794524Y-143835476D01*
X70699286Y-143883095D01*
X108402381Y-134723095D02*
X107402381Y-134723095D01*
X107402381Y-134342142D01*
X107450000Y-134246904D01*
X107497619Y-134199285D01*
X107592857Y-134151666D01*
X107735714Y-134151666D01*
X107830952Y-134199285D01*
X107878571Y-134246904D01*
X107926190Y-134342142D01*
X107926190Y-134723095D01*
X107497619Y-133770714D02*
X107450000Y-133723095D01*
X107402381Y-133627857D01*
X107402381Y-133389761D01*
X107450000Y-133294523D01*
X107497619Y-133246904D01*
X107592857Y-133199285D01*
X107688095Y-133199285D01*
X107830952Y-133246904D01*
X108402381Y-133818333D01*
X108402381Y-133199285D01*
M02*
