G04 #@! TF.FileFunction,Copper,L2,Bot,Signal*
%FSLAX46Y46*%
G04 Gerber Fmt 4.6, Leading zero omitted, Abs format (unit mm)*
G04 Created by KiCad (PCBNEW no-vcs-found-product) date Fri 08 Apr 2016 02:07:00 AM CDT*
%MOMM*%
G01*
G04 APERTURE LIST*
%ADD10C,0.100000*%
%ADD11R,1.727200X2.032000*%
%ADD12O,1.727200X2.032000*%
%ADD13R,1.524000X1.824000*%
%ADD14O,1.524000X1.824000*%
%ADD15R,2.032000X2.032000*%
%ADD16O,2.032000X2.032000*%
%ADD17C,0.685800*%
%ADD18C,0.250000*%
%ADD19C,0.254000*%
G04 APERTURE END LIST*
D10*
D11*
X81280000Y-155575000D03*
D12*
X83820000Y-155575000D03*
X86360000Y-155575000D03*
D13*
X76835000Y-151765000D03*
D14*
X76835000Y-144145000D03*
D15*
X67945000Y-145415000D03*
D16*
X67945000Y-142875000D03*
D15*
X104140000Y-136525000D03*
D16*
X106680000Y-136525000D03*
D17*
X107315000Y-146685000D03*
X95250000Y-146685000D03*
X94615000Y-151130000D03*
X94615000Y-147320000D03*
X96520000Y-156210000D03*
X100965000Y-156845000D03*
X90170000Y-153670000D03*
X97155000Y-153035000D03*
X89535000Y-146685000D03*
D18*
X95250000Y-146685000D02*
X107315000Y-146685000D01*
X94615000Y-147320000D02*
X94615000Y-151130000D01*
X96520000Y-156845000D02*
X97790000Y-156845000D01*
X96520000Y-156210000D02*
X96520000Y-156845000D01*
X100965000Y-156845000D02*
X97790000Y-156845000D01*
X97790000Y-156845000D02*
X93345000Y-156845000D01*
X93345000Y-156845000D02*
X90170000Y-153670000D01*
X90805000Y-153035000D02*
X97155000Y-153035000D01*
X88900000Y-151130000D02*
X90805000Y-153035000D01*
X88900000Y-147320000D02*
X88900000Y-151130000D01*
X89535000Y-146685000D02*
X88900000Y-147320000D01*
D19*
G36*
X112903000Y-134672606D02*
X112903000Y-156157394D01*
X111707394Y-157353000D01*
X101812915Y-157353000D01*
X101942730Y-157040370D01*
X101943069Y-156651337D01*
X101794507Y-156291788D01*
X101519659Y-156016460D01*
X101160370Y-155867270D01*
X100771337Y-155866931D01*
X100411788Y-156015493D01*
X100342160Y-156085000D01*
X97498009Y-156085000D01*
X97498069Y-156016337D01*
X97349507Y-155656788D01*
X97074659Y-155381460D01*
X96715370Y-155232270D01*
X96326337Y-155231931D01*
X95966788Y-155380493D01*
X95691460Y-155655341D01*
X95542270Y-156014630D01*
X95542209Y-156085000D01*
X93659802Y-156085000D01*
X91369802Y-153795000D01*
X96531920Y-153795000D01*
X96600341Y-153863540D01*
X96959630Y-154012730D01*
X97348663Y-154013069D01*
X97708212Y-153864507D01*
X97983540Y-153589659D01*
X98132730Y-153230370D01*
X98133069Y-152841337D01*
X97984507Y-152481788D01*
X97709659Y-152206460D01*
X97350370Y-152057270D01*
X96961337Y-152056931D01*
X96601788Y-152205493D01*
X96532160Y-152275000D01*
X91119802Y-152275000D01*
X89660000Y-150815198D01*
X89660000Y-147663009D01*
X89728663Y-147663069D01*
X90088212Y-147514507D01*
X90089057Y-147513663D01*
X93636931Y-147513663D01*
X93785493Y-147873212D01*
X93855000Y-147942840D01*
X93855000Y-150506920D01*
X93786460Y-150575341D01*
X93637270Y-150934630D01*
X93636931Y-151323663D01*
X93785493Y-151683212D01*
X94060341Y-151958540D01*
X94419630Y-152107730D01*
X94808663Y-152108069D01*
X95168212Y-151959507D01*
X95443540Y-151684659D01*
X95592730Y-151325370D01*
X95593069Y-150936337D01*
X95444507Y-150576788D01*
X95375000Y-150507160D01*
X95375000Y-147943080D01*
X95443540Y-147874659D01*
X95549571Y-147619309D01*
X95803212Y-147514507D01*
X95872840Y-147445000D01*
X106691920Y-147445000D01*
X106760341Y-147513540D01*
X107119630Y-147662730D01*
X107508663Y-147663069D01*
X107868212Y-147514507D01*
X108143540Y-147239659D01*
X108292730Y-146880370D01*
X108293069Y-146491337D01*
X108144507Y-146131788D01*
X107869659Y-145856460D01*
X107510370Y-145707270D01*
X107121337Y-145706931D01*
X106761788Y-145855493D01*
X106692160Y-145925000D01*
X95873080Y-145925000D01*
X95804659Y-145856460D01*
X95445370Y-145707270D01*
X95056337Y-145706931D01*
X94696788Y-145855493D01*
X94421460Y-146130341D01*
X94315429Y-146385691D01*
X94061788Y-146490493D01*
X93786460Y-146765341D01*
X93637270Y-147124630D01*
X93636931Y-147513663D01*
X90089057Y-147513663D01*
X90363540Y-147239659D01*
X90512730Y-146880370D01*
X90513069Y-146491337D01*
X90364507Y-146131788D01*
X90089659Y-145856460D01*
X89730370Y-145707270D01*
X89341337Y-145706931D01*
X88981788Y-145855493D01*
X88706460Y-146130341D01*
X88557270Y-146489630D01*
X88557184Y-146588014D01*
X88362599Y-146782599D01*
X88197852Y-147029161D01*
X88140000Y-147320000D01*
X88140000Y-151130000D01*
X88197852Y-151420839D01*
X88362599Y-151667401D01*
X89576204Y-152881006D01*
X89341460Y-153115341D01*
X89192270Y-153474630D01*
X89191931Y-153863663D01*
X89340493Y-154223212D01*
X89615341Y-154498540D01*
X89974630Y-154647730D01*
X90073014Y-154647816D01*
X92778198Y-157353000D01*
X67362606Y-157353000D01*
X65532000Y-155522394D01*
X65532000Y-154559000D01*
X79768960Y-154559000D01*
X79768960Y-156591000D01*
X79813238Y-156826317D01*
X79952310Y-157042441D01*
X80164510Y-157187431D01*
X80416400Y-157238440D01*
X82143600Y-157238440D01*
X82378917Y-157194162D01*
X82595041Y-157055090D01*
X82740031Y-156842890D01*
X82748400Y-156801561D01*
X82760330Y-156819415D01*
X83246511Y-157144271D01*
X83820000Y-157258345D01*
X84393489Y-157144271D01*
X84879670Y-156819415D01*
X85090000Y-156504634D01*
X85300330Y-156819415D01*
X85786511Y-157144271D01*
X86360000Y-157258345D01*
X86933489Y-157144271D01*
X87419670Y-156819415D01*
X87744526Y-156333234D01*
X87858600Y-155759745D01*
X87858600Y-155390255D01*
X87744526Y-154816766D01*
X87419670Y-154330585D01*
X86933489Y-154005729D01*
X86360000Y-153891655D01*
X85786511Y-154005729D01*
X85300330Y-154330585D01*
X85090000Y-154645366D01*
X84879670Y-154330585D01*
X84393489Y-154005729D01*
X83820000Y-153891655D01*
X83246511Y-154005729D01*
X82760330Y-154330585D01*
X82750757Y-154344913D01*
X82746762Y-154323683D01*
X82607690Y-154107559D01*
X82395490Y-153962569D01*
X82143600Y-153911560D01*
X80416400Y-153911560D01*
X80181083Y-153955838D01*
X79964959Y-154094910D01*
X79819969Y-154307110D01*
X79768960Y-154559000D01*
X65532000Y-154559000D01*
X65532000Y-150853000D01*
X75425560Y-150853000D01*
X75425560Y-152677000D01*
X75469838Y-152912317D01*
X75608910Y-153128441D01*
X75821110Y-153273431D01*
X76073000Y-153324440D01*
X77597000Y-153324440D01*
X77832317Y-153280162D01*
X78048441Y-153141090D01*
X78193431Y-152928890D01*
X78244440Y-152677000D01*
X78244440Y-150853000D01*
X78200162Y-150617683D01*
X78061090Y-150401559D01*
X77848890Y-150256569D01*
X77597000Y-150205560D01*
X76073000Y-150205560D01*
X75837683Y-150249838D01*
X75621559Y-150388910D01*
X75476569Y-150601110D01*
X75425560Y-150853000D01*
X65532000Y-150853000D01*
X65532000Y-145700750D01*
X66294000Y-145700750D01*
X66294000Y-146557310D01*
X66390673Y-146790699D01*
X66569302Y-146969327D01*
X66802691Y-147066000D01*
X67659250Y-147066000D01*
X67818000Y-146907250D01*
X67818000Y-145542000D01*
X68072000Y-145542000D01*
X68072000Y-146907250D01*
X68230750Y-147066000D01*
X69087309Y-147066000D01*
X69320698Y-146969327D01*
X69499327Y-146790699D01*
X69596000Y-146557310D01*
X69596000Y-145700750D01*
X69437250Y-145542000D01*
X68072000Y-145542000D01*
X67818000Y-145542000D01*
X66452750Y-145542000D01*
X66294000Y-145700750D01*
X65532000Y-145700750D01*
X65532000Y-142875000D01*
X66261655Y-142875000D01*
X66387330Y-143506810D01*
X66611966Y-143843001D01*
X66569302Y-143860673D01*
X66390673Y-144039301D01*
X66294000Y-144272690D01*
X66294000Y-145129250D01*
X66452750Y-145288000D01*
X67818000Y-145288000D01*
X67818000Y-145268000D01*
X68072000Y-145268000D01*
X68072000Y-145288000D01*
X69437250Y-145288000D01*
X69596000Y-145129250D01*
X69596000Y-144272690D01*
X69499327Y-144039301D01*
X69424718Y-143964692D01*
X75438000Y-143964692D01*
X75438000Y-144325308D01*
X75544340Y-144859917D01*
X75847172Y-145313136D01*
X76300391Y-145615968D01*
X76835000Y-145722308D01*
X77369609Y-145615968D01*
X77822828Y-145313136D01*
X78125660Y-144859917D01*
X78232000Y-144325308D01*
X78232000Y-143964692D01*
X78125660Y-143430083D01*
X77822828Y-142976864D01*
X77369609Y-142674032D01*
X76835000Y-142567692D01*
X76300391Y-142674032D01*
X75847172Y-142976864D01*
X75544340Y-143430083D01*
X75438000Y-143964692D01*
X69424718Y-143964692D01*
X69320698Y-143860673D01*
X69278034Y-143843001D01*
X69502670Y-143506810D01*
X69628345Y-142875000D01*
X69502670Y-142243190D01*
X69144778Y-141707567D01*
X68609155Y-141349675D01*
X67977345Y-141224000D01*
X67912655Y-141224000D01*
X67280845Y-141349675D01*
X66745222Y-141707567D01*
X66387330Y-142243190D01*
X66261655Y-142875000D01*
X65532000Y-142875000D01*
X65532000Y-135509000D01*
X102476560Y-135509000D01*
X102476560Y-137541000D01*
X102520838Y-137776317D01*
X102659910Y-137992441D01*
X102872110Y-138137431D01*
X103124000Y-138188440D01*
X105156000Y-138188440D01*
X105391317Y-138144162D01*
X105607441Y-138005090D01*
X105709198Y-137856163D01*
X106048190Y-138082670D01*
X106680000Y-138208345D01*
X107311810Y-138082670D01*
X107847433Y-137724778D01*
X108205325Y-137189155D01*
X108331000Y-136557345D01*
X108331000Y-136492655D01*
X108205325Y-135860845D01*
X107847433Y-135325222D01*
X107311810Y-134967330D01*
X106680000Y-134841655D01*
X106048190Y-134967330D01*
X105708208Y-135194499D01*
X105620090Y-135057559D01*
X105407890Y-134912569D01*
X105156000Y-134861560D01*
X103124000Y-134861560D01*
X102888683Y-134905838D01*
X102672559Y-135044910D01*
X102527569Y-135257110D01*
X102476560Y-135509000D01*
X65532000Y-135509000D01*
X65532000Y-134672606D01*
X67362606Y-132842000D01*
X111072394Y-132842000D01*
X112903000Y-134672606D01*
X112903000Y-134672606D01*
G37*
X112903000Y-134672606D02*
X112903000Y-156157394D01*
X111707394Y-157353000D01*
X101812915Y-157353000D01*
X101942730Y-157040370D01*
X101943069Y-156651337D01*
X101794507Y-156291788D01*
X101519659Y-156016460D01*
X101160370Y-155867270D01*
X100771337Y-155866931D01*
X100411788Y-156015493D01*
X100342160Y-156085000D01*
X97498009Y-156085000D01*
X97498069Y-156016337D01*
X97349507Y-155656788D01*
X97074659Y-155381460D01*
X96715370Y-155232270D01*
X96326337Y-155231931D01*
X95966788Y-155380493D01*
X95691460Y-155655341D01*
X95542270Y-156014630D01*
X95542209Y-156085000D01*
X93659802Y-156085000D01*
X91369802Y-153795000D01*
X96531920Y-153795000D01*
X96600341Y-153863540D01*
X96959630Y-154012730D01*
X97348663Y-154013069D01*
X97708212Y-153864507D01*
X97983540Y-153589659D01*
X98132730Y-153230370D01*
X98133069Y-152841337D01*
X97984507Y-152481788D01*
X97709659Y-152206460D01*
X97350370Y-152057270D01*
X96961337Y-152056931D01*
X96601788Y-152205493D01*
X96532160Y-152275000D01*
X91119802Y-152275000D01*
X89660000Y-150815198D01*
X89660000Y-147663009D01*
X89728663Y-147663069D01*
X90088212Y-147514507D01*
X90089057Y-147513663D01*
X93636931Y-147513663D01*
X93785493Y-147873212D01*
X93855000Y-147942840D01*
X93855000Y-150506920D01*
X93786460Y-150575341D01*
X93637270Y-150934630D01*
X93636931Y-151323663D01*
X93785493Y-151683212D01*
X94060341Y-151958540D01*
X94419630Y-152107730D01*
X94808663Y-152108069D01*
X95168212Y-151959507D01*
X95443540Y-151684659D01*
X95592730Y-151325370D01*
X95593069Y-150936337D01*
X95444507Y-150576788D01*
X95375000Y-150507160D01*
X95375000Y-147943080D01*
X95443540Y-147874659D01*
X95549571Y-147619309D01*
X95803212Y-147514507D01*
X95872840Y-147445000D01*
X106691920Y-147445000D01*
X106760341Y-147513540D01*
X107119630Y-147662730D01*
X107508663Y-147663069D01*
X107868212Y-147514507D01*
X108143540Y-147239659D01*
X108292730Y-146880370D01*
X108293069Y-146491337D01*
X108144507Y-146131788D01*
X107869659Y-145856460D01*
X107510370Y-145707270D01*
X107121337Y-145706931D01*
X106761788Y-145855493D01*
X106692160Y-145925000D01*
X95873080Y-145925000D01*
X95804659Y-145856460D01*
X95445370Y-145707270D01*
X95056337Y-145706931D01*
X94696788Y-145855493D01*
X94421460Y-146130341D01*
X94315429Y-146385691D01*
X94061788Y-146490493D01*
X93786460Y-146765341D01*
X93637270Y-147124630D01*
X93636931Y-147513663D01*
X90089057Y-147513663D01*
X90363540Y-147239659D01*
X90512730Y-146880370D01*
X90513069Y-146491337D01*
X90364507Y-146131788D01*
X90089659Y-145856460D01*
X89730370Y-145707270D01*
X89341337Y-145706931D01*
X88981788Y-145855493D01*
X88706460Y-146130341D01*
X88557270Y-146489630D01*
X88557184Y-146588014D01*
X88362599Y-146782599D01*
X88197852Y-147029161D01*
X88140000Y-147320000D01*
X88140000Y-151130000D01*
X88197852Y-151420839D01*
X88362599Y-151667401D01*
X89576204Y-152881006D01*
X89341460Y-153115341D01*
X89192270Y-153474630D01*
X89191931Y-153863663D01*
X89340493Y-154223212D01*
X89615341Y-154498540D01*
X89974630Y-154647730D01*
X90073014Y-154647816D01*
X92778198Y-157353000D01*
X67362606Y-157353000D01*
X65532000Y-155522394D01*
X65532000Y-154559000D01*
X79768960Y-154559000D01*
X79768960Y-156591000D01*
X79813238Y-156826317D01*
X79952310Y-157042441D01*
X80164510Y-157187431D01*
X80416400Y-157238440D01*
X82143600Y-157238440D01*
X82378917Y-157194162D01*
X82595041Y-157055090D01*
X82740031Y-156842890D01*
X82748400Y-156801561D01*
X82760330Y-156819415D01*
X83246511Y-157144271D01*
X83820000Y-157258345D01*
X84393489Y-157144271D01*
X84879670Y-156819415D01*
X85090000Y-156504634D01*
X85300330Y-156819415D01*
X85786511Y-157144271D01*
X86360000Y-157258345D01*
X86933489Y-157144271D01*
X87419670Y-156819415D01*
X87744526Y-156333234D01*
X87858600Y-155759745D01*
X87858600Y-155390255D01*
X87744526Y-154816766D01*
X87419670Y-154330585D01*
X86933489Y-154005729D01*
X86360000Y-153891655D01*
X85786511Y-154005729D01*
X85300330Y-154330585D01*
X85090000Y-154645366D01*
X84879670Y-154330585D01*
X84393489Y-154005729D01*
X83820000Y-153891655D01*
X83246511Y-154005729D01*
X82760330Y-154330585D01*
X82750757Y-154344913D01*
X82746762Y-154323683D01*
X82607690Y-154107559D01*
X82395490Y-153962569D01*
X82143600Y-153911560D01*
X80416400Y-153911560D01*
X80181083Y-153955838D01*
X79964959Y-154094910D01*
X79819969Y-154307110D01*
X79768960Y-154559000D01*
X65532000Y-154559000D01*
X65532000Y-150853000D01*
X75425560Y-150853000D01*
X75425560Y-152677000D01*
X75469838Y-152912317D01*
X75608910Y-153128441D01*
X75821110Y-153273431D01*
X76073000Y-153324440D01*
X77597000Y-153324440D01*
X77832317Y-153280162D01*
X78048441Y-153141090D01*
X78193431Y-152928890D01*
X78244440Y-152677000D01*
X78244440Y-150853000D01*
X78200162Y-150617683D01*
X78061090Y-150401559D01*
X77848890Y-150256569D01*
X77597000Y-150205560D01*
X76073000Y-150205560D01*
X75837683Y-150249838D01*
X75621559Y-150388910D01*
X75476569Y-150601110D01*
X75425560Y-150853000D01*
X65532000Y-150853000D01*
X65532000Y-145700750D01*
X66294000Y-145700750D01*
X66294000Y-146557310D01*
X66390673Y-146790699D01*
X66569302Y-146969327D01*
X66802691Y-147066000D01*
X67659250Y-147066000D01*
X67818000Y-146907250D01*
X67818000Y-145542000D01*
X68072000Y-145542000D01*
X68072000Y-146907250D01*
X68230750Y-147066000D01*
X69087309Y-147066000D01*
X69320698Y-146969327D01*
X69499327Y-146790699D01*
X69596000Y-146557310D01*
X69596000Y-145700750D01*
X69437250Y-145542000D01*
X68072000Y-145542000D01*
X67818000Y-145542000D01*
X66452750Y-145542000D01*
X66294000Y-145700750D01*
X65532000Y-145700750D01*
X65532000Y-142875000D01*
X66261655Y-142875000D01*
X66387330Y-143506810D01*
X66611966Y-143843001D01*
X66569302Y-143860673D01*
X66390673Y-144039301D01*
X66294000Y-144272690D01*
X66294000Y-145129250D01*
X66452750Y-145288000D01*
X67818000Y-145288000D01*
X67818000Y-145268000D01*
X68072000Y-145268000D01*
X68072000Y-145288000D01*
X69437250Y-145288000D01*
X69596000Y-145129250D01*
X69596000Y-144272690D01*
X69499327Y-144039301D01*
X69424718Y-143964692D01*
X75438000Y-143964692D01*
X75438000Y-144325308D01*
X75544340Y-144859917D01*
X75847172Y-145313136D01*
X76300391Y-145615968D01*
X76835000Y-145722308D01*
X77369609Y-145615968D01*
X77822828Y-145313136D01*
X78125660Y-144859917D01*
X78232000Y-144325308D01*
X78232000Y-143964692D01*
X78125660Y-143430083D01*
X77822828Y-142976864D01*
X77369609Y-142674032D01*
X76835000Y-142567692D01*
X76300391Y-142674032D01*
X75847172Y-142976864D01*
X75544340Y-143430083D01*
X75438000Y-143964692D01*
X69424718Y-143964692D01*
X69320698Y-143860673D01*
X69278034Y-143843001D01*
X69502670Y-143506810D01*
X69628345Y-142875000D01*
X69502670Y-142243190D01*
X69144778Y-141707567D01*
X68609155Y-141349675D01*
X67977345Y-141224000D01*
X67912655Y-141224000D01*
X67280845Y-141349675D01*
X66745222Y-141707567D01*
X66387330Y-142243190D01*
X66261655Y-142875000D01*
X65532000Y-142875000D01*
X65532000Y-135509000D01*
X102476560Y-135509000D01*
X102476560Y-137541000D01*
X102520838Y-137776317D01*
X102659910Y-137992441D01*
X102872110Y-138137431D01*
X103124000Y-138188440D01*
X105156000Y-138188440D01*
X105391317Y-138144162D01*
X105607441Y-138005090D01*
X105709198Y-137856163D01*
X106048190Y-138082670D01*
X106680000Y-138208345D01*
X107311810Y-138082670D01*
X107847433Y-137724778D01*
X108205325Y-137189155D01*
X108331000Y-136557345D01*
X108331000Y-136492655D01*
X108205325Y-135860845D01*
X107847433Y-135325222D01*
X107311810Y-134967330D01*
X106680000Y-134841655D01*
X106048190Y-134967330D01*
X105708208Y-135194499D01*
X105620090Y-135057559D01*
X105407890Y-134912569D01*
X105156000Y-134861560D01*
X103124000Y-134861560D01*
X102888683Y-134905838D01*
X102672559Y-135044910D01*
X102527569Y-135257110D01*
X102476560Y-135509000D01*
X65532000Y-135509000D01*
X65532000Y-134672606D01*
X67362606Y-132842000D01*
X111072394Y-132842000D01*
X112903000Y-134672606D01*
M02*
