G04 #@! TF.FileFunction,Legend,Bot*
%FSLAX46Y46*%
G04 Gerber Fmt 4.6, Leading zero omitted, Abs format (unit mm)*
G04 Created by KiCad (PCBNEW no-vcs-found-product) date Fri 08 Apr 2016 01:52:16 AM CDT*
%MOMM*%
G01*
G04 APERTURE LIST*
%ADD10C,0.100000*%
%ADD11C,0.300000*%
%ADD12C,0.150000*%
G04 APERTURE END LIST*
D10*
D11*
X111319285Y-156253571D02*
X111819285Y-155539286D01*
X112176428Y-156253571D02*
X112176428Y-154753571D01*
X111605000Y-154753571D01*
X111462142Y-154825000D01*
X111390714Y-154896429D01*
X111319285Y-155039286D01*
X111319285Y-155253571D01*
X111390714Y-155396429D01*
X111462142Y-155467857D01*
X111605000Y-155539286D01*
X112176428Y-155539286D01*
X110105000Y-156182143D02*
X110247857Y-156253571D01*
X110533571Y-156253571D01*
X110676428Y-156182143D01*
X110747857Y-156039286D01*
X110747857Y-155467857D01*
X110676428Y-155325000D01*
X110533571Y-155253571D01*
X110247857Y-155253571D01*
X110105000Y-155325000D01*
X110033571Y-155467857D01*
X110033571Y-155610714D01*
X110747857Y-155753571D01*
X109533571Y-155253571D02*
X109176428Y-156253571D01*
X108819286Y-155253571D01*
X107462143Y-156253571D02*
X108319286Y-156253571D01*
X107890714Y-156253571D02*
X107890714Y-154753571D01*
X108033571Y-154967857D01*
X108176429Y-155110714D01*
X108319286Y-155182143D01*
X112067855Y-147838571D02*
X111210712Y-147838571D01*
X111639283Y-149338571D02*
X111639283Y-147838571D01*
X110710712Y-149338571D02*
X110710712Y-147838571D01*
X110139284Y-147838571D01*
X109996426Y-147910000D01*
X109924998Y-147981429D01*
X109853569Y-148124286D01*
X109853569Y-148338571D01*
X109924998Y-148481429D01*
X109996426Y-148552857D01*
X110139284Y-148624286D01*
X110710712Y-148624286D01*
X109282141Y-149267143D02*
X109067855Y-149338571D01*
X108710712Y-149338571D01*
X108567855Y-149267143D01*
X108496426Y-149195714D01*
X108424998Y-149052857D01*
X108424998Y-148910000D01*
X108496426Y-148767143D01*
X108567855Y-148695714D01*
X108710712Y-148624286D01*
X108996426Y-148552857D01*
X109139284Y-148481429D01*
X109210712Y-148410000D01*
X109282141Y-148267143D01*
X109282141Y-148124286D01*
X109210712Y-147981429D01*
X109139284Y-147910000D01*
X108996426Y-147838571D01*
X108639284Y-147838571D01*
X108424998Y-147910000D01*
X107139284Y-147838571D02*
X107424998Y-147838571D01*
X107567855Y-147910000D01*
X107639284Y-147981429D01*
X107782141Y-148195714D01*
X107853570Y-148481429D01*
X107853570Y-149052857D01*
X107782141Y-149195714D01*
X107710713Y-149267143D01*
X107567855Y-149338571D01*
X107282141Y-149338571D01*
X107139284Y-149267143D01*
X107067855Y-149195714D01*
X106996427Y-149052857D01*
X106996427Y-148695714D01*
X107067855Y-148552857D01*
X107139284Y-148481429D01*
X107282141Y-148410000D01*
X107567855Y-148410000D01*
X107710713Y-148481429D01*
X107782141Y-148552857D01*
X107853570Y-148695714D01*
X106496427Y-147838571D02*
X105567856Y-147838571D01*
X106067856Y-148410000D01*
X105853570Y-148410000D01*
X105710713Y-148481429D01*
X105639284Y-148552857D01*
X105567856Y-148695714D01*
X105567856Y-149052857D01*
X105639284Y-149195714D01*
X105710713Y-149267143D01*
X105853570Y-149338571D01*
X106282142Y-149338571D01*
X106424999Y-149267143D01*
X106496427Y-149195714D01*
X104639285Y-147838571D02*
X104496428Y-147838571D01*
X104353571Y-147910000D01*
X104282142Y-147981429D01*
X104210713Y-148124286D01*
X104139285Y-148410000D01*
X104139285Y-148767143D01*
X104210713Y-149052857D01*
X104282142Y-149195714D01*
X104353571Y-149267143D01*
X104496428Y-149338571D01*
X104639285Y-149338571D01*
X104782142Y-149267143D01*
X104853571Y-149195714D01*
X104924999Y-149052857D01*
X104996428Y-148767143D01*
X104996428Y-148410000D01*
X104924999Y-148124286D01*
X104853571Y-147981429D01*
X104782142Y-147910000D01*
X104639285Y-147838571D01*
X102853571Y-147838571D02*
X103139285Y-147838571D01*
X103282142Y-147910000D01*
X103353571Y-147981429D01*
X103496428Y-148195714D01*
X103567857Y-148481429D01*
X103567857Y-149052857D01*
X103496428Y-149195714D01*
X103425000Y-149267143D01*
X103282142Y-149338571D01*
X102996428Y-149338571D01*
X102853571Y-149267143D01*
X102782142Y-149195714D01*
X102710714Y-149052857D01*
X102710714Y-148695714D01*
X102782142Y-148552857D01*
X102853571Y-148481429D01*
X102996428Y-148410000D01*
X103282142Y-148410000D01*
X103425000Y-148481429D01*
X103496428Y-148552857D01*
X103567857Y-148695714D01*
X101782143Y-147838571D02*
X101639286Y-147838571D01*
X101496429Y-147910000D01*
X101425000Y-147981429D01*
X101353571Y-148124286D01*
X101282143Y-148410000D01*
X101282143Y-148767143D01*
X101353571Y-149052857D01*
X101425000Y-149195714D01*
X101496429Y-149267143D01*
X101639286Y-149338571D01*
X101782143Y-149338571D01*
X101925000Y-149267143D01*
X101996429Y-149195714D01*
X102067857Y-149052857D01*
X102139286Y-148767143D01*
X102139286Y-148410000D01*
X102067857Y-148124286D01*
X101996429Y-147981429D01*
X101925000Y-147910000D01*
X101782143Y-147838571D01*
X99496429Y-149338571D02*
X99496429Y-147838571D01*
X98925001Y-147838571D01*
X98782143Y-147910000D01*
X98710715Y-147981429D01*
X98639286Y-148124286D01*
X98639286Y-148338571D01*
X98710715Y-148481429D01*
X98782143Y-148552857D01*
X98925001Y-148624286D01*
X99496429Y-148624286D01*
X97782143Y-149338571D02*
X97925001Y-149267143D01*
X97996429Y-149195714D01*
X98067858Y-149052857D01*
X98067858Y-148624286D01*
X97996429Y-148481429D01*
X97925001Y-148410000D01*
X97782143Y-148338571D01*
X97567858Y-148338571D01*
X97425001Y-148410000D01*
X97353572Y-148481429D01*
X97282143Y-148624286D01*
X97282143Y-149052857D01*
X97353572Y-149195714D01*
X97425001Y-149267143D01*
X97567858Y-149338571D01*
X97782143Y-149338571D01*
X96782143Y-148338571D02*
X96496429Y-149338571D01*
X96210715Y-148624286D01*
X95925000Y-149338571D01*
X95639286Y-148338571D01*
X94496429Y-149267143D02*
X94639286Y-149338571D01*
X94925000Y-149338571D01*
X95067857Y-149267143D01*
X95139286Y-149124286D01*
X95139286Y-148552857D01*
X95067857Y-148410000D01*
X94925000Y-148338571D01*
X94639286Y-148338571D01*
X94496429Y-148410000D01*
X94425000Y-148552857D01*
X94425000Y-148695714D01*
X95139286Y-148838571D01*
X93782143Y-149338571D02*
X93782143Y-148338571D01*
X93782143Y-148624286D02*
X93710715Y-148481429D01*
X93639286Y-148410000D01*
X93496429Y-148338571D01*
X93353572Y-148338571D01*
X91782144Y-149267143D02*
X91567858Y-149338571D01*
X91210715Y-149338571D01*
X91067858Y-149267143D01*
X90996429Y-149195714D01*
X90925001Y-149052857D01*
X90925001Y-148910000D01*
X90996429Y-148767143D01*
X91067858Y-148695714D01*
X91210715Y-148624286D01*
X91496429Y-148552857D01*
X91639287Y-148481429D01*
X91710715Y-148410000D01*
X91782144Y-148267143D01*
X91782144Y-148124286D01*
X91710715Y-147981429D01*
X91639287Y-147910000D01*
X91496429Y-147838571D01*
X91139287Y-147838571D01*
X90925001Y-147910000D01*
X89639287Y-148338571D02*
X89639287Y-149338571D01*
X90282144Y-148338571D02*
X90282144Y-149124286D01*
X90210716Y-149267143D01*
X90067858Y-149338571D01*
X89853573Y-149338571D01*
X89710716Y-149267143D01*
X89639287Y-149195714D01*
X88925001Y-148338571D02*
X88925001Y-149838571D01*
X88925001Y-148410000D02*
X88782144Y-148338571D01*
X88496430Y-148338571D01*
X88353573Y-148410000D01*
X88282144Y-148481429D01*
X88210715Y-148624286D01*
X88210715Y-149052857D01*
X88282144Y-149195714D01*
X88353573Y-149267143D01*
X88496430Y-149338571D01*
X88782144Y-149338571D01*
X88925001Y-149267143D01*
X87567858Y-148338571D02*
X87567858Y-149838571D01*
X87567858Y-148410000D02*
X87425001Y-148338571D01*
X87139287Y-148338571D01*
X86996430Y-148410000D01*
X86925001Y-148481429D01*
X86853572Y-148624286D01*
X86853572Y-149052857D01*
X86925001Y-149195714D01*
X86996430Y-149267143D01*
X87139287Y-149338571D01*
X87425001Y-149338571D01*
X87567858Y-149267143D01*
X85996429Y-149338571D02*
X86139287Y-149267143D01*
X86210715Y-149124286D01*
X86210715Y-147838571D01*
X85567858Y-148338571D02*
X85210715Y-149338571D01*
X84853573Y-148338571D02*
X85210715Y-149338571D01*
X85353573Y-149695714D01*
X85425001Y-149767143D01*
X85567858Y-149838571D01*
X112639285Y-151738571D02*
X112639285Y-150238571D01*
X112639285Y-150810000D02*
X112496428Y-150738571D01*
X112210714Y-150738571D01*
X112067857Y-150810000D01*
X111996428Y-150881429D01*
X111924999Y-151024286D01*
X111924999Y-151452857D01*
X111996428Y-151595714D01*
X112067857Y-151667143D01*
X112210714Y-151738571D01*
X112496428Y-151738571D01*
X112639285Y-151667143D01*
X111424999Y-150738571D02*
X111067856Y-151738571D01*
X110710714Y-150738571D02*
X111067856Y-151738571D01*
X111210714Y-152095714D01*
X111282142Y-152167143D01*
X111424999Y-152238571D01*
X109067857Y-151310000D02*
X108353571Y-151310000D01*
X109210714Y-151738571D02*
X108710714Y-150238571D01*
X108210714Y-151738571D01*
X107710714Y-151738571D02*
X107710714Y-150738571D01*
X107710714Y-150881429D02*
X107639286Y-150810000D01*
X107496428Y-150738571D01*
X107282143Y-150738571D01*
X107139286Y-150810000D01*
X107067857Y-150952857D01*
X107067857Y-151738571D01*
X107067857Y-150952857D02*
X106996428Y-150810000D01*
X106853571Y-150738571D01*
X106639286Y-150738571D01*
X106496428Y-150810000D01*
X106425000Y-150952857D01*
X106425000Y-151738571D01*
X105710714Y-150738571D02*
X105710714Y-152238571D01*
X105710714Y-150810000D02*
X105567857Y-150738571D01*
X105282143Y-150738571D01*
X105139286Y-150810000D01*
X105067857Y-150881429D01*
X104996428Y-151024286D01*
X104996428Y-151452857D01*
X105067857Y-151595714D01*
X105139286Y-151667143D01*
X105282143Y-151738571D01*
X105567857Y-151738571D01*
X105710714Y-151667143D01*
X103782143Y-151667143D02*
X103925000Y-151738571D01*
X104210714Y-151738571D01*
X104353571Y-151667143D01*
X104425000Y-151524286D01*
X104425000Y-150952857D01*
X104353571Y-150810000D01*
X104210714Y-150738571D01*
X103925000Y-150738571D01*
X103782143Y-150810000D01*
X103710714Y-150952857D01*
X103710714Y-151095714D01*
X104425000Y-151238571D01*
X103067857Y-151738571D02*
X103067857Y-150738571D01*
X103067857Y-151024286D02*
X102996429Y-150881429D01*
X102925000Y-150810000D01*
X102782143Y-150738571D01*
X102639286Y-150738571D01*
X102353572Y-150738571D02*
X101782143Y-150738571D01*
X102139286Y-150238571D02*
X102139286Y-151524286D01*
X102067858Y-151667143D01*
X101925000Y-151738571D01*
X101782143Y-151738571D01*
X100639286Y-150738571D02*
X100639286Y-151738571D01*
X101282143Y-150738571D02*
X101282143Y-151524286D01*
X101210715Y-151667143D01*
X101067857Y-151738571D01*
X100853572Y-151738571D01*
X100710715Y-151667143D01*
X100639286Y-151595714D01*
X99925000Y-151738571D02*
X99925000Y-150738571D01*
X99925000Y-151024286D02*
X99853572Y-150881429D01*
X99782143Y-150810000D01*
X99639286Y-150738571D01*
X99496429Y-150738571D01*
X98425001Y-151667143D02*
X98567858Y-151738571D01*
X98853572Y-151738571D01*
X98996429Y-151667143D01*
X99067858Y-151524286D01*
X99067858Y-150952857D01*
X98996429Y-150810000D01*
X98853572Y-150738571D01*
X98567858Y-150738571D01*
X98425001Y-150810000D01*
X98353572Y-150952857D01*
X98353572Y-151095714D01*
X99067858Y-151238571D01*
X96567858Y-150952857D02*
X96067858Y-150952857D01*
X95853572Y-151738571D02*
X96567858Y-151738571D01*
X96567858Y-150238571D01*
X95853572Y-150238571D01*
X95210715Y-150738571D02*
X95210715Y-151738571D01*
X95210715Y-150881429D02*
X95139287Y-150810000D01*
X94996429Y-150738571D01*
X94782144Y-150738571D01*
X94639287Y-150810000D01*
X94567858Y-150952857D01*
X94567858Y-151738571D01*
X93210715Y-150738571D02*
X93210715Y-151952857D01*
X93282144Y-152095714D01*
X93353572Y-152167143D01*
X93496429Y-152238571D01*
X93710715Y-152238571D01*
X93853572Y-152167143D01*
X93210715Y-151667143D02*
X93353572Y-151738571D01*
X93639286Y-151738571D01*
X93782144Y-151667143D01*
X93853572Y-151595714D01*
X93925001Y-151452857D01*
X93925001Y-151024286D01*
X93853572Y-150881429D01*
X93782144Y-150810000D01*
X93639286Y-150738571D01*
X93353572Y-150738571D01*
X93210715Y-150810000D01*
X92496429Y-151738571D02*
X92496429Y-150738571D01*
X92496429Y-150238571D02*
X92567858Y-150310000D01*
X92496429Y-150381429D01*
X92425001Y-150310000D01*
X92496429Y-150238571D01*
X92496429Y-150381429D01*
X91782143Y-150738571D02*
X91782143Y-151738571D01*
X91782143Y-150881429D02*
X91710715Y-150810000D01*
X91567857Y-150738571D01*
X91353572Y-150738571D01*
X91210715Y-150810000D01*
X91139286Y-150952857D01*
X91139286Y-151738571D01*
X89853572Y-151667143D02*
X89996429Y-151738571D01*
X90282143Y-151738571D01*
X90425000Y-151667143D01*
X90496429Y-151524286D01*
X90496429Y-150952857D01*
X90425000Y-150810000D01*
X90282143Y-150738571D01*
X89996429Y-150738571D01*
X89853572Y-150810000D01*
X89782143Y-150952857D01*
X89782143Y-151095714D01*
X90496429Y-151238571D01*
X88567858Y-151667143D02*
X88710715Y-151738571D01*
X88996429Y-151738571D01*
X89139286Y-151667143D01*
X89210715Y-151524286D01*
X89210715Y-150952857D01*
X89139286Y-150810000D01*
X88996429Y-150738571D01*
X88710715Y-150738571D01*
X88567858Y-150810000D01*
X88496429Y-150952857D01*
X88496429Y-151095714D01*
X89210715Y-151238571D01*
X87853572Y-151738571D02*
X87853572Y-150738571D01*
X87853572Y-151024286D02*
X87782144Y-150881429D01*
X87710715Y-150810000D01*
X87567858Y-150738571D01*
X87425001Y-150738571D01*
X86925001Y-151738571D02*
X86925001Y-150738571D01*
X86925001Y-150238571D02*
X86996430Y-150310000D01*
X86925001Y-150381429D01*
X86853573Y-150310000D01*
X86925001Y-150238571D01*
X86925001Y-150381429D01*
X86210715Y-150738571D02*
X86210715Y-151738571D01*
X86210715Y-150881429D02*
X86139287Y-150810000D01*
X85996429Y-150738571D01*
X85782144Y-150738571D01*
X85639287Y-150810000D01*
X85567858Y-150952857D01*
X85567858Y-151738571D01*
X84210715Y-150738571D02*
X84210715Y-151952857D01*
X84282144Y-152095714D01*
X84353572Y-152167143D01*
X84496429Y-152238571D01*
X84710715Y-152238571D01*
X84853572Y-152167143D01*
X84210715Y-151667143D02*
X84353572Y-151738571D01*
X84639286Y-151738571D01*
X84782144Y-151667143D01*
X84853572Y-151595714D01*
X84925001Y-151452857D01*
X84925001Y-151024286D01*
X84853572Y-150881429D01*
X84782144Y-150810000D01*
X84639286Y-150738571D01*
X84353572Y-150738571D01*
X84210715Y-150810000D01*
D12*
X68181220Y-138579860D02*
X67820540Y-140050520D01*
X67820540Y-140050520D02*
X67541140Y-138988800D01*
X67541140Y-138988800D02*
X67231260Y-140060680D01*
X67231260Y-140060680D02*
X66890900Y-138610340D01*
X69601080Y-139270740D02*
X68811140Y-139260580D01*
X68811140Y-139260580D02*
X68800980Y-139270740D01*
X68800980Y-139270740D02*
X68800980Y-139260580D01*
X68760340Y-138549380D02*
X68760340Y-140091160D01*
X69649340Y-138539220D02*
X69649340Y-140108940D01*
X69649340Y-140108940D02*
X69639180Y-140098780D01*
X70200520Y-138640820D02*
X70551040Y-138559540D01*
X70551040Y-138559540D02*
X70871080Y-138549380D01*
X70871080Y-138549380D02*
X71109840Y-138750040D01*
X71109840Y-138750040D02*
X71140320Y-139019280D01*
X71140320Y-139019280D02*
X70899020Y-139260580D01*
X70899020Y-139260580D02*
X70510400Y-139390120D01*
X70510400Y-139390120D02*
X70330060Y-139550140D01*
X70330060Y-139550140D02*
X70289420Y-139849860D01*
X70289420Y-139849860D02*
X70520560Y-140070840D01*
X70520560Y-140070840D02*
X70840600Y-140098780D01*
X70840600Y-140098780D02*
X71191120Y-139989560D01*
X72229980Y-138539220D02*
X72478900Y-138559540D01*
X72478900Y-138559540D02*
X72720200Y-138800840D01*
X72720200Y-138800840D02*
X72809100Y-139291060D01*
X72809100Y-139291060D02*
X72781160Y-139639040D01*
X72781160Y-139639040D02*
X72580500Y-139959080D01*
X72580500Y-139959080D02*
X72329040Y-140081000D01*
X72329040Y-140081000D02*
X72019160Y-140009880D01*
X72019160Y-140009880D02*
X71800720Y-139829540D01*
X71800720Y-139829540D02*
X71729600Y-139369800D01*
X71729600Y-139369800D02*
X71780400Y-138960860D01*
X71780400Y-138960860D02*
X71889620Y-138678920D01*
X71889620Y-138678920D02*
X72250300Y-138549380D01*
X71630540Y-136819640D02*
X71889620Y-137380980D01*
X71889620Y-137380980D02*
X71351140Y-137899140D01*
X71351140Y-137899140D02*
X70830440Y-137629900D01*
X70830440Y-137629900D02*
X70551040Y-137789920D01*
X69110860Y-137769600D02*
X68780660Y-137579100D01*
X68780660Y-137579100D02*
X68341240Y-137909300D01*
X68341240Y-137909300D02*
X67868800Y-137419080D01*
X67868800Y-137419080D02*
X68150740Y-136939020D01*
X68150740Y-136939020D02*
X67960240Y-136469120D01*
X67960240Y-136469120D02*
X67350640Y-136281160D01*
X67350640Y-136281160D02*
X67350640Y-135600440D01*
X67350640Y-135600440D02*
X67909440Y-135460740D01*
X67909440Y-135460740D02*
X68110100Y-134889240D01*
X68110100Y-134889240D02*
X67840860Y-134419340D01*
X67840860Y-134419340D02*
X68310760Y-133908800D01*
X68310760Y-133908800D02*
X68828920Y-134170420D01*
X68828920Y-134170420D02*
X69298820Y-133969760D01*
X69298820Y-133969760D02*
X69469000Y-133428740D01*
X69469000Y-133428740D02*
X70159880Y-133410960D01*
X70159880Y-133410960D02*
X70370700Y-133959600D01*
X70370700Y-133959600D02*
X70789800Y-134129780D01*
X70789800Y-134129780D02*
X71340980Y-133860540D01*
X71340980Y-133860540D02*
X71859140Y-134388860D01*
X71859140Y-134388860D02*
X71610220Y-134929880D01*
X71610220Y-134929880D02*
X71780400Y-135409940D01*
X71780400Y-135409940D02*
X72329040Y-135509000D01*
X72329040Y-135509000D02*
X72339200Y-136210040D01*
X72339200Y-136210040D02*
X71780400Y-136410700D01*
X71780400Y-136410700D02*
X71640700Y-136809480D01*
X69499480Y-136789160D02*
X69199760Y-136639300D01*
X69199760Y-136639300D02*
X68999100Y-136441180D01*
X68999100Y-136441180D02*
X68849240Y-136039860D01*
X68849240Y-136039860D02*
X68849240Y-135641080D01*
X68849240Y-135641080D02*
X68999100Y-135290560D01*
X68999100Y-135290560D02*
X69451220Y-134940040D01*
X69451220Y-134940040D02*
X69900800Y-134889240D01*
X69900800Y-134889240D02*
X70299580Y-134990840D01*
X70299580Y-134990840D02*
X70700900Y-135338820D01*
X70700900Y-135338820D02*
X70850760Y-135790940D01*
X70850760Y-135790940D02*
X70799960Y-136288780D01*
X70799960Y-136288780D02*
X70551040Y-136591040D01*
X70551040Y-136591040D02*
X70200520Y-136789160D01*
X70200520Y-136789160D02*
X70551040Y-137789920D01*
X69499480Y-136789160D02*
X69100700Y-137789920D01*
M02*
